<?xml version="1.0" encoding="UTF-8"?>
<svg width="29px" height="28px" viewBox="0 0 29 28" version="1.1" xmlns="http://www.w3.org/2000/svg" xmlns:xlink="http://www.w3.org/1999/xlink">
    <!-- Generator: Sketch 52.2 (67145) - http://www.bohemiancoding.com/sketch -->
    <title>find</title>
    <desc>Created with Sketch.</desc>
    <g id="Page-1" stroke="none" stroke-width="1" fill="none" fill-rule="evenodd">
        <g id="首页" transform="translate(-365.000000, -483.000000)" fill="#000000" fill-rule="nonzero">
            <g id="find" transform="translate(364.000000, 481.000000)">
                <rect id="Rectangle-path" opacity="0" x="0" y="0" width="32" height="32"></rect>
                <path d="M29.6231955,27.6877557 L22.5303404,20.6013603 C24.0608867,18.6523457 24.97342,16.1980097 24.97342,13.5310499 C24.97342,7.19019703 19.8161167,2.04993812 13.454254,2.04993812 C7.09235941,2.04993812 1.93499209,7.190229 1.93499209,13.5310499 C1.93499209,19.8718709 7.09235941,25.0121617 13.454254,25.0121617 C16.134197,25.0121617 18.600301,24.0998843 20.5572462,22.5700735 L27.6490779,29.6553497 C28.0481354,30.053096 28.6951847,30.053096 29.0942741,29.6553497 L29.6231955,29.1281551 C30.0222849,28.7304407 30.0222849,28.085502 29.6231955,27.6877557 Z M13.454254,22.2338215 C8.63189159,22.2338215 4.72254213,18.3374872 4.72254213,13.5310819 C4.72254213,8.72464469 8.63189159,4.82831041 13.454254,4.82831041 C18.2766165,4.82831041 22.185838,8.72467666 22.185838,13.5310819 C22.185838,18.3374872 18.2766165,22.2338215 13.454254,22.2338215 Z" id="Shape"></path>
            </g>
        </g>
    </g>
</svg>