<?xml version="1.0" standalone="no"?><!DOCTYPE svg PUBLIC "-//W3C//DTD SVG 1.1//EN" "http://www.w3.org/Graphics/SVG/1.1/DTD/svg11.dtd"><svg t="1543746210526" class="icon" style="" viewBox="0 0 1508 1024" version="1.1" xmlns="http://www.w3.org/2000/svg" p-id="1721" xmlns:xlink="http://www.w3.org/1999/xlink" width="736.328125" height="500"  fill="#8a8a8a"><defs><style type="text/css"></style></defs><path d="M1286.918919 470.486486V106.551351H106.551351V608.864865C290.594595 423.437838 392.994595 332.108108 413.751351 332.108108c33.210811 0 296.12973 330.724324 323.805406 330.724324S981.102703 525.837838 1008.778378 525.837838c5.535135 0 17.989189 6.918919 37.362163 22.14054-56.735135 53.967568-92.713514 130.075676-92.713514 214.486487 0 110.702703 60.886486 206.183784 149.448649 257.383784H70.572973c-38.745946 0-70.572973-31.827027-70.572973-70.572973V70.572973C0 31.827027 31.827027 0 70.572973 0h1250.940541c38.745946 0 70.572973 31.827027 70.572972 70.572973v434.508108c-31.827027-17.989189-67.805405-30.443243-105.167567-34.594595z" p-id="1722"></path><path d="M999.091892 768a256 254.616216 90 1 0 509.232432 0 256 254.616216 90 1 0-509.232432 0Z" p-id="1723"></path><path d="M1231.567568 867.632432a22.140541 22.140541 0 1 0 44.281081 0 22.140541 22.140541 0 1 0-44.281081 0Z" p-id="1724"></path><path d="M1231.567568 646.227027h44.281081v178.508108H1231.567568z" p-id="1725"></path></svg>